<svg xmlns="http://www.w3.org/2000/svg" width="1200" height="720" viewBox="0 0 1200 720">
  <style>text{font-family:Inter,-apple-system,BlinkMacSystemFont,"Segoe UI",sans-serif;}</style>
  <rect x="0" y="0" width="1200" height="720" fill="#ffffff"/>
  <text x="64" y="92" font-size="46" fill="#1e2830" font-weight="800">Zero-shot transfer</text>
  <text x="66" y="130" font-size="24" fill="#6b7178" font-weight="500">Accuracy (%)</text>
  <rect x="754.2" y="167" width="22" height="22" rx="5" fill="#e28d84"/>
  <text x="786.2" y="185.92" font-size="22" fill="#3a4149" font-weight="500">CLIP</text>
  <rect x="865.5" y="167" width="22" height="22" rx="5" fill="#f0cf83"/>
  <text x="897.5" y="185.92" font-size="22" fill="#3a4149" font-weight="500">SigLIP</text>
  <rect x="1001.4" y="167" width="22" height="22" rx="5" fill="#6ea9cf" stroke="#2f6f96" stroke-width="1.6"/>
  <text x="1033.4" y="185.92" font-size="22" fill="#3a4149" font-weight="700">LeVLJEPA</text>
  <line x1="132" y1="624.0" x2="1132" y2="624.0" stroke="#eef0f2" stroke-width="1.4"/>
  <text x="118" y="630.0" font-size="20" fill="#9aa3ab" text-anchor="end" font-family="'IBM Plex Mono',monospace">0</text>
  <line x1="132" y1="541.2" x2="1132" y2="541.2" stroke="#eef0f2" stroke-width="1.4"/>
  <text x="118" y="547.2" font-size="20" fill="#9aa3ab" text-anchor="end" font-family="'IBM Plex Mono',monospace">20</text>
  <line x1="132" y1="458.4" x2="1132" y2="458.4" stroke="#eef0f2" stroke-width="1.4"/>
  <text x="118" y="464.4" font-size="20" fill="#9aa3ab" text-anchor="end" font-family="'IBM Plex Mono',monospace">40</text>
  <line x1="132" y1="375.6" x2="1132" y2="375.6" stroke="#eef0f2" stroke-width="1.4"/>
  <text x="118" y="381.6" font-size="20" fill="#9aa3ab" text-anchor="end" font-family="'IBM Plex Mono',monospace">60</text>
  <line x1="132" y1="292.8" x2="1132" y2="292.8" stroke="#eef0f2" stroke-width="1.4"/>
  <text x="118" y="298.8" font-size="20" fill="#9aa3ab" text-anchor="end" font-family="'IBM Plex Mono',monospace">80</text>
  <line x1="132" y1="210.0" x2="1132" y2="210.0" stroke="#eef0f2" stroke-width="1.4"/>
  <text x="118" y="216.0" font-size="20" fill="#9aa3ab" text-anchor="end" font-family="'IBM Plex Mono',monospace">100</text>
  <line x1="132" y1="210" x2="132" y2="624" stroke="#cdd2d7" stroke-width="1.6"/>
  <line x1="132" y1="624" x2="1132" y2="624" stroke="#cdd2d7" stroke-width="1.6"/>
  <path d="M177.10000000000002,624 L177.10000000000002,432.0952 Q177.10000000000002,428.0952 181.10000000000002,428.0952 L219.5666666666667,428.0952 Q223.5666666666667,428.0952 223.5666666666667,432.0952 L223.5666666666667,624 Z" fill="#e28d84"/>
  <text x="200.3" y="420.1" font-size="17.0" fill="#6b7178" font-weight="600" text-anchor="middle" font-family="'IBM Plex Mono',monospace">47.32</text>
  <path d="M233.76666666666668,624 L233.76666666666668,417.7708 Q233.76666666666668,413.7708 237.76666666666668,413.7708 L276.23333333333335,413.7708 Q280.23333333333335,413.7708 280.23333333333335,417.7708 L280.23333333333335,624 Z" fill="#f0cf83"/>
  <text x="257.0" y="405.8" font-size="17.0" fill="#6b7178" font-weight="600" text-anchor="middle" font-family="'IBM Plex Mono',monospace">50.78</text>
  <path d="M290.4333333333333,624 L290.4333333333333,452.25699999999995 Q290.4333333333333,448.25699999999995 294.4333333333333,448.25699999999995 L332.8999999999999,448.25699999999995 Q336.8999999999999,448.25699999999995 336.8999999999999,452.25699999999995 L336.8999999999999,624 Z" fill="#6ea9cf" stroke="#2f6f96" stroke-width="2"/>
  <text x="313.7" y="440.3" font-size="17.0" fill="#1e3647" font-weight="700" text-anchor="middle" font-family="'IBM Plex Mono',monospace">42.45</text>
  <text x="257.0" y="658.0" font-size="24" fill="#444" font-weight="500" text-anchor="middle">ImageNet</text>
  <path d="M427.09999999999997,624 L427.09999999999997,485.3356 Q427.09999999999997,481.3356 431.09999999999997,481.3356 L469.5666666666666,481.3356 Q473.5666666666666,481.3356 473.5666666666666,485.3356 L473.5666666666666,624 Z" fill="#e28d84"/>
  <text x="450.3" y="473.3" font-size="17.0" fill="#6b7178" font-weight="600" text-anchor="middle" font-family="'IBM Plex Mono',monospace">34.46</text>
  <path d="M483.76666666666665,624 L483.76666666666665,488.2336 Q483.76666666666665,484.2336 487.76666666666665,484.2336 L526.2333333333333,484.2336 Q530.2333333333333,484.2336 530.2333333333333,488.2336 L530.2333333333333,624 Z" fill="#f0cf83"/>
  <text x="507.0" y="476.2" font-size="17.0" fill="#6b7178" font-weight="600" text-anchor="middle" font-family="'IBM Plex Mono',monospace">33.76</text>
  <path d="M540.4333333333334,624 L540.4333333333334,503.92420000000004 Q540.4333333333334,499.92420000000004 544.4333333333334,499.92420000000004 L582.9000000000001,499.92420000000004 Q586.9000000000001,499.92420000000004 586.9000000000001,503.92420000000004 L586.9000000000001,624 Z" fill="#6ea9cf" stroke="#2f6f96" stroke-width="2"/>
  <text x="563.7" y="491.9" font-size="17.0" fill="#1e3647" font-weight="700" text-anchor="middle" font-family="'IBM Plex Mono',monospace">29.97</text>
  <text x="507.0" y="658.0" font-size="24" fill="#444" font-weight="500" text-anchor="middle">Places365</text>
  <path d="M677.1,624 L677.1,594.466 Q677.1,590.466 681.1,590.466 L719.5666666666667,590.466 Q723.5666666666667,590.466 723.5666666666667,594.466 L723.5666666666667,624 Z" fill="#e28d84"/>
  <text x="700.3" y="582.5" font-size="17.0" fill="#6b7178" font-weight="600" text-anchor="middle" font-family="'IBM Plex Mono',monospace">8.10</text>
  <path d="M733.7666666666667,624 L733.7666666666667,584.0332 Q733.7666666666667,580.0332 737.7666666666667,580.0332 L776.2333333333333,580.0332 Q780.2333333333333,580.0332 780.2333333333333,584.0332 L780.2333333333333,624 Z" fill="#f0cf83"/>
  <text x="757.0" y="572.0" font-size="17.0" fill="#6b7178" font-weight="600" text-anchor="middle" font-family="'IBM Plex Mono',monospace">10.62</text>
  <path d="M790.4333333333334,624 L790.4333333333334,596.329 Q790.4333333333334,592.329 794.4333333333334,592.329 L832.9000000000001,592.329 Q836.9000000000001,592.329 836.9000000000001,596.329 L836.9000000000001,624 Z" fill="#6ea9cf" stroke="#2f6f96" stroke-width="2"/>
  <text x="813.7" y="584.3" font-size="17.0" fill="#1e3647" font-weight="700" text-anchor="middle" font-family="'IBM Plex Mono',monospace">7.65</text>
  <text x="757.0" y="658.0" font-size="24" fill="#444" font-weight="500" text-anchor="middle">Aircraft</text>
  <path d="M927.1,624 L927.1,342.4228 Q927.1,338.4228 931.1,338.4228 L969.5666666666667,338.4228 Q973.5666666666667,338.4228 973.5666666666667,342.4228 L973.5666666666667,624 Z" fill="#e28d84"/>
  <text x="950.3" y="330.4" font-size="17.0" fill="#6b7178" font-weight="600" text-anchor="middle" font-family="'IBM Plex Mono',monospace">68.98</text>
  <path d="M983.7666666666667,624 L983.7666666666667,308.10220000000004 Q983.7666666666667,304.10220000000004 987.7666666666667,304.10220000000004 L1026.2333333333333,304.10220000000004 Q1030.2333333333333,304.10220000000004 1030.2333333333333,308.10220000000004 L1030.2333333333333,624 Z" fill="#f0cf83"/>
  <text x="1007.0" y="296.1" font-size="17.0" fill="#6b7178" font-weight="600" text-anchor="middle" font-family="'IBM Plex Mono',monospace">77.27</text>
  <path d="M1040.4333333333332,624 L1040.4333333333332,381.1318 Q1040.4333333333332,377.1318 1044.4333333333332,377.1318 L1082.8999999999999,377.1318 Q1086.8999999999999,377.1318 1086.8999999999999,381.1318 L1086.8999999999999,624 Z" fill="#6ea9cf" stroke="#2f6f96" stroke-width="2"/>
  <text x="1063.7" y="369.1" font-size="17.0" fill="#1e3647" font-weight="700" text-anchor="middle" font-family="'IBM Plex Mono',monospace">59.63</text>
  <text x="1007.0" y="658.0" font-size="24" fill="#444" font-weight="500" text-anchor="middle">Pets</text>
</svg>
